<?xml version="1.0" encoding="UTF-8"?>
<svg width="24px" height="24px" viewBox="0 0 24 24" version="1.1" xmlns="http://www.w3.org/2000/svg" xmlns:xlink="http://www.w3.org/1999/xlink">
    <!-- Generator: Sketch 56.3 (81716) - https://sketch.com -->
    <title>layout@2x</title>
    <desc>Created with Sketch.</desc>
    <g id="layout" stroke="none" stroke-width="1" fill="none" fill-rule="evenodd">
        <rect id="Rectangle" fill="#56AADF" x="2" y="2" width="20" height="20" rx="2"></rect>
        <path d="M17.5135135,18 L6.48648649,18 C6.21621622,18 6,17.7837838 6,17.5135135 L6,6.48648649 C6,6.21621622 6.21621622,6 6.48648649,6 L17.5135135,6 C17.7837838,6 18,6.21621622 18,6.48648649 L18,17.5135135 C18,17.7837838 17.7837838,18 17.5135135,18 Z M7.02702703,16.972973 L16.972973,16.972973 L16.972973,7.02702703 L7.02702703,7.02702703 L7.02702703,16.972973 Z M15.2432432,10.4864865 L8.75675676,10.4864865 C8.59459459,10.4864865 8.48648649,10.3783784 8.48648649,10.2702703 L8.48648649,8.75675676 C8.48648649,8.59459459 8.59459459,8.48648649 8.75675676,8.48648649 L15.2432432,8.48648649 C15.4054054,8.48648649 15.5135135,8.59459459 15.5135135,8.75675676 L15.5135135,10.2702703 C15.5135135,10.3783784 15.4054054,10.4864865 15.2432432,10.4864865 L15.2432432,10.4864865 Z M10.2702703,15.5135135 L8.75675676,15.5135135 C8.59459459,15.5135135 8.48648649,15.4054054 8.48648649,15.2432432 L8.48648649,12.2702703 C8.48648649,12.1081081 8.59459459,12 8.75675676,12 L10.2702703,12 C10.3783784,12 10.4864865,12.1081081 10.4864865,12.2702703 L10.4864865,15.2432432 C10.4864865,15.4054054 10.3783784,15.5135135 10.2702703,15.5135135 Z M15.2432432,15.5135135 L12.2702703,15.5135135 C12.1081081,15.5135135 12,15.4054054 12,15.2432432 L12,12.2702703 C12,12.1081081 12.1081081,12 12.2702703,12 L15.2432432,12 C15.4054054,12 15.5135135,12.1081081 15.5135135,12.2702703 L15.5135135,15.2432432 C15.5135135,15.4054054 15.4054054,15.5135135 15.2432432,15.5135135 Z" id="Shape" fill="#FFFFFF" fill-rule="nonzero"></path>
    </g>
</svg>