<?xml version="1.0" encoding="UTF-8"?>
<svg width="24px" height="24px" viewBox="0 0 24 24" version="1.1" xmlns="http://www.w3.org/2000/svg" xmlns:xlink="http://www.w3.org/1999/xlink">
    <!-- Generator: Sketch 56.2 (81672) - https://sketch.com -->
    <title>Category@2x</title>
    <desc>Created with Sketch.</desc>
    <g id="Category" stroke="none" stroke-width="1" fill="none" fill-rule="evenodd">
        <path d="M17.5135135,18 L6.48648649,18 C6.21621622,18 6,17.7837838 6,17.5135135 L6,6.48648649 C6,6.21621622 6.21621622,6 6.48648649,6 L17.5135135,6 C17.7837838,6 18,6.21621622 18,6.48648649 L18,17.5135135 C18,17.7837838 17.7837838,18 17.5135135,18 Z M7.02702703,16.972973 L16.972973,16.972973 L16.972973,7.02702703 L7.02702703,7.02702703 L7.02702703,16.972973 Z M15.2432432,10.4864865 L8.75675676,10.4864865 C8.59459459,10.4864865 8.48648649,10.3783784 8.48648649,10.2702703 L8.48648649,8.75675676 C8.48648649,8.59459459 8.59459459,8.48648649 8.75675676,8.48648649 L15.2432432,8.48648649 C15.4054054,8.48648649 15.5135135,8.59459459 15.5135135,8.75675676 L15.5135135,10.2702703 C15.5135135,10.3783784 15.4054054,10.4864865 15.2432432,10.4864865 L15.2432432,10.4864865 Z M10.2702703,15.5135135 L8.75675676,15.5135135 C8.59459459,15.5135135 8.48648649,15.4054054 8.48648649,15.2432432 L8.48648649,12.2702703 C8.48648649,12.1081081 8.59459459,12 8.75675676,12 L10.2702703,12 C10.3783784,12 10.4864865,12.1081081 10.4864865,12.2702703 L10.4864865,15.2432432 C10.4864865,15.4054054 10.3783784,15.5135135 10.2702703,15.5135135 Z M15.2432432,15.5135135 L12.2702703,15.5135135 C12.1081081,15.5135135 12,15.4054054 12,15.2432432 L12,12.2702703 C12,12.1081081 12.1081081,12 12.2702703,12 L15.2432432,12 C15.4054054,12 15.5135135,12.1081081 15.5135135,12.2702703 L15.5135135,15.2432432 C15.5135135,15.4054054 15.4054054,15.5135135 15.2432432,15.5135135 Z" id="Shape" fill="#FFFFFF" fill-rule="nonzero"></path>
        <g id="orange" transform="translate(2.000000, 2.000000)" fill="#F5A623">
            <rect x="0" y="0" width="20" height="20" rx="2"></rect>
        </g>
        <g id="blue" transform="translate(2.000000, 2.000000)" fill="#4A90E2">
            <g id="green">
                <rect x="0" y="0" width="20" height="20" rx="2"></rect>
            </g>
        </g>
        <rect id="green" fill="#FF9E2C" x="2" y="2" width="20" height="20" rx="2"></rect>
        <g id="category.08dde5f5" transform="translate(7.000000, 6.000000)" fill="#FFFFFF" fill-rule="nonzero">
            <path d="M7.66333333,1.72333333 L9.295,3.355 L9.295,3.355 C9.66166667,3.70333333 9.66166667,4.29 9.295,4.63833333 L9.295,4.63833333 L5.04166667,8.87333333 L5.04166667,5.005 L5.04166667,3.04333333 L6.36166667,1.705 C6.71,1.35666667 7.315,1.35666667 7.66333333,1.72333333 Z" id="Path"></path>
            <path d="M3.20833333,0 L0.916666667,0 C0.403333333,0 0,0.403333333 0,0.916666667 L0,8.94666667 C0,10.0833333 0.916666667,11 2.05333333,11 C3.19,11 4.10666667,10.0833333 4.10666667,8.94666667 L4.10666667,0.916666667 C4.125,0.403333333 3.70333333,0 3.20833333,0 Z M2.05333333,9.86333333 C1.54,9.86333333 1.13666667,9.46 1.13666667,8.94666667 C1.13666667,8.43333333 1.54,8.03 2.05333333,8.03 C2.56666667,8.03 2.97,8.43333333 2.97,8.94666667 C2.97,9.46 2.56666667,9.86333333 2.05333333,9.86333333 Z" id="Shape"></path>
            <path d="M10.0833333,6.875 L8.47,6.875 L7.37,7.975 L9.9,7.975 L9.88166667,9.9 L5.46333333,9.9 L4.36333333,11 L10.0833333,11 C10.5966667,11 11,10.5966667 11,10.0833333 L11,7.79166667 C11,7.29666667 10.5966667,6.875 10.0833333,6.875 L10.0833333,6.875 Z" id="Path"></path>
        </g>
    </g>
</svg>